<svg xmlns="http://www.w3.org/2000/svg" width="36" height="36" viewBox="0 0 36 36"><g transform="translate(-1005.375 -2870.375)"><circle cx="18" cy="18" r="18" transform="translate(1005.375 2870.375)" fill="#fff"/><path d="M.979,16.947a.907.907,0,0,0,.6-.221L10.94,9.195a.975.975,0,0,0,0-1.5L1.619.206a.935.935,0,0,0-.707-.2A.949.949,0,0,0,.261.36a.913.913,0,0,0-.21.707A.911.911,0,0,0,.4,1.707L8.8,8.444.36,15.224a.911.911,0,0,0-.353.641.935.935,0,0,0,.2.707A.962.962,0,0,0,.979,16.947Zm0,0" transform="translate(1019.251 2880.085)" fill="#64c1d0"/></g></svg>