<svg xmlns="http://www.w3.org/2000/svg" width="272.445" height="129.762" viewBox="0 0 272.445 129.762"><g transform="translate(-58.238 -155.812)"><g transform="translate(58.751 165.696)"><path d="M104.347,202.841H69.45l-7.829,17.073H58.539l26.984-58.3h2.749l26.984,58.3h-3.08Zm-1.083-2.416L86.94,164.863,70.532,200.426Z" transform="translate(-58.539 -161.614)" fill="#fff"/><path d="M100.927,161.614h2.831v55.719h34.147v2.581H100.927Z" transform="translate(-28.718 -161.614)" fill="#fff"/><path d="M146.854,161.614h22.487a33.779,33.779,0,0,1,16.115,3.748,27.116,27.116,0,0,1,10.911,10.369,31.117,31.117,0,0,1,0,30.066,27.093,27.093,0,0,1-10.911,10.369,33.759,33.759,0,0,1-16.115,3.748H146.854Zm22.32,55.719a31,31,0,0,0,14.867-3.416,24.525,24.525,0,0,0,9.869-9.453,28.569,28.569,0,0,0,0-27.4,24.551,24.551,0,0,0-9.869-9.455,31.016,31.016,0,0,0-14.867-3.414H149.685v53.137Z" transform="translate(3.593 -161.614)" fill="#fff"/><path d="M229.082,202.841h-34.9l-7.829,17.073h-3.082l26.986-58.3h2.748l26.984,58.3h-3.082ZM228,200.426l-16.325-35.563-16.407,35.563Z" transform="translate(29.217 -161.614)" fill="#fff"/></g><g transform="translate(58.238 274.446)"><path d="M66.817,233.684H61.035l-1.2,2.721h-1.6l4.927-10.88H64.7l4.942,10.88H68.013Zm-.543-1.242-2.347-5.332-2.347,5.332Z" transform="translate(-58.238 -225.401)" fill="#fff"/><path d="M85.183,235.052V236.4h-7.9v-10.88h7.678v1.353H78.841v3.342H84.3v1.32H78.841v3.513Z" transform="translate(-44.836 -225.401)" fill="#fff"/><path d="M96.016,236.2a4.882,4.882,0,0,1-1.8-.986L94.794,234a4.771,4.771,0,0,0,1.594.91,5.839,5.839,0,0,0,2,.349,3.591,3.591,0,0,0,2.02-.458,1.414,1.414,0,0,0,.668-1.22,1.2,1.2,0,0,0-.365-.91,2.413,2.413,0,0,0-.9-.535c-.358-.124-.864-.266-1.516-.421a15.673,15.673,0,0,1-1.981-.589,3.29,3.29,0,0,1-1.29-.91,2.429,2.429,0,0,1-.537-1.656,2.807,2.807,0,0,1,.458-1.569,3.151,3.151,0,0,1,1.392-1.119,5.648,5.648,0,0,1,2.315-.419,7.278,7.278,0,0,1,1.9.249,5.059,5.059,0,0,1,1.6.714l-.513,1.244a5.709,5.709,0,0,0-1.462-.661,5.461,5.461,0,0,0-1.523-.225,3.347,3.347,0,0,0-1.981.482,1.473,1.473,0,0,0-.661,1.244,1.2,1.2,0,0,0,.373.91,2.608,2.608,0,0,0,.925.543,14.377,14.377,0,0,0,1.5.412,15.185,15.185,0,0,1,1.974.589,3.319,3.319,0,0,1,1.281.9,2.366,2.366,0,0,1,.538,1.632,2.78,2.78,0,0,1-.467,1.562,3.128,3.128,0,0,1-1.416,1.119,5.853,5.853,0,0,1-2.33.412A7.44,7.44,0,0,1,96.016,236.2Z" transform="translate(-32.924 -225.452)" fill="#fff"/><path d="M114.59,226.877h-3.729v-1.353h9v1.353h-3.731V236.4H114.59Z" transform="translate(-21.216 -225.401)" fill="#fff"/><path d="M137.9,225.524V236.4h-1.555v-4.85H130.1v4.85h-1.555v-10.88H130.1v4.68h6.247v-4.68Z" transform="translate(-8.778 -225.401)" fill="#fff"/><path d="M155.248,235.052V236.4h-7.894v-10.88h7.678v1.353h-6.124v3.342h5.455v1.32h-5.455v3.513Z" transform="translate(4.458 -225.401)" fill="#fff"/><path d="M167.678,226.877h-3.729v-1.353h9v1.353h-3.731V236.4h-1.538Z" transform="translate(16.133 -225.401)" fill="#fff"/><path d="M181.63,225.524h1.554V236.4H181.63Z" transform="translate(28.572 -225.401)" fill="#fff"/><path d="M198.146,235.857a5.3,5.3,0,0,1-2.058-1.99,5.823,5.823,0,0,1,0-5.7,5.278,5.278,0,0,1,2.066-1.99,6.049,6.049,0,0,1,2.954-.722,6.175,6.175,0,0,1,2.33.426,4.789,4.789,0,0,1,1.8,1.267l-1.01.98a4.05,4.05,0,0,0-3.061-1.291,4.427,4.427,0,0,0-2.191.545,3.939,3.939,0,0,0-1.531,1.5,4.413,4.413,0,0,0,0,4.274,3.927,3.927,0,0,0,1.531,1.5,4.41,4.41,0,0,0,2.191.545,4.058,4.058,0,0,0,3.061-1.307l1.01.98a4.814,4.814,0,0,1-1.811,1.274,6.1,6.1,0,0,1-2.339.436A6.025,6.025,0,0,1,198.146,235.857Z" transform="translate(38.219 -225.452)" fill="#fff"/><path d="M215.045,236.2a4.859,4.859,0,0,1-1.794-.986l.574-1.213a4.762,4.762,0,0,0,1.593.91,5.848,5.848,0,0,0,2,.349,3.591,3.591,0,0,0,2.02-.458,1.414,1.414,0,0,0,.668-1.22,1.209,1.209,0,0,0-.365-.91,2.419,2.419,0,0,0-.9-.535c-.356-.124-.862-.266-1.514-.421a15.588,15.588,0,0,1-1.981-.589,3.265,3.265,0,0,1-1.29-.91,2.429,2.429,0,0,1-.537-1.656,2.794,2.794,0,0,1,.458-1.569,3.136,3.136,0,0,1,1.39-1.119,5.651,5.651,0,0,1,2.317-.419,7.279,7.279,0,0,1,1.9.249,5.033,5.033,0,0,1,1.6.714l-.513,1.244A5.672,5.672,0,0,0,219.2,227a5.461,5.461,0,0,0-1.523-.225,3.347,3.347,0,0,0-1.981.482,1.473,1.473,0,0,0-.661,1.244,1.2,1.2,0,0,0,.373.91,2.593,2.593,0,0,0,.925.543,14.26,14.26,0,0,0,1.5.412,15.15,15.15,0,0,1,1.973.589,3.324,3.324,0,0,1,1.283.9,2.374,2.374,0,0,1,.537,1.632,2.767,2.767,0,0,1-.467,1.562,3.114,3.114,0,0,1-1.414,1.119,5.852,5.852,0,0,1-2.33.412A7.45,7.45,0,0,1,215.045,236.2Z" transform="translate(50.818 -225.452)" fill="#fff"/></g><g transform="translate(58.548 252.384)"><path d="M60.118,215.593h-.153a1.546,1.546,0,0,1,0-3.092h.153a1.546,1.546,0,1,1,0,3.092Z" transform="translate(-58.42 -212.501)" fill="#fff"/><g transform="translate(12.564)"><path d="M309.321,215.593h-.31a1.546,1.546,0,0,1,0-3.092h.31a1.546,1.546,0,1,1,0,3.092Zm-12.719,0h-.31a1.546,1.546,0,0,1,0-3.092h.31a1.546,1.546,0,0,1,0,3.092Zm-12.72,0h-.31a1.546,1.546,0,0,1,0-3.092h.31a1.546,1.546,0,0,1,0,3.092Zm-12.719,0h-.312a1.546,1.546,0,0,1,0-3.092h.312a1.546,1.546,0,0,1,0,3.092Zm-12.72,0h-.31a1.546,1.546,0,0,1,0-3.092h.31a1.546,1.546,0,0,1,0,3.092Zm-12.72,0h-.31a1.546,1.546,0,0,1,0-3.092h.31a1.546,1.546,0,1,1,0,3.092Zm-12.719,0h-.31a1.546,1.546,0,1,1,0-3.092H233a1.546,1.546,0,0,1,0,3.092Zm-12.72,0h-.31a1.546,1.546,0,0,1,0-3.092h.31a1.546,1.546,0,1,1,0,3.092Zm-12.719,0h-.312a1.546,1.546,0,0,1,0-3.092h.312a1.546,1.546,0,0,1,0,3.092Zm-12.72,0h-.31a1.546,1.546,0,0,1,0-3.092h.31a1.546,1.546,0,0,1,0,3.092Zm-12.719,0h-.312a1.546,1.546,0,0,1,0-3.092h.312a1.546,1.546,0,0,1,0,3.092Zm-12.72,0h-.31a1.546,1.546,0,0,1,0-3.092h.31a1.546,1.546,0,0,1,0,3.092Zm-12.72,0h-.31a1.546,1.546,0,0,1,0-3.092h.31a1.546,1.546,0,1,1,0,3.092Zm-12.719,0h-.31a1.546,1.546,0,1,1,0-3.092h.31a1.546,1.546,0,0,1,0,3.092Zm-12.72,0h-.31a1.546,1.546,0,0,1,0-3.092h.31a1.546,1.546,0,0,1,0,3.092Zm-12.719,0h-.312a1.546,1.546,0,0,1,0-3.092h.312a1.546,1.546,0,0,1,0,3.092Zm-12.72,0h-.31a1.546,1.546,0,0,1,0-3.092h.31a1.546,1.546,0,0,1,0,3.092Zm-12.719,0h-.312a1.546,1.546,0,0,1,0-3.092h.312a1.546,1.546,0,0,1,0,3.092Zm-12.72,0h-.31a1.546,1.546,0,1,1,0-3.092h.31a1.546,1.546,0,0,1,0,3.092Zm-12.72,0h-.31a1.546,1.546,0,0,1,0-3.092h.31a1.546,1.546,0,0,1,0,3.092Z" transform="translate(-65.795 -212.501)" fill="#fff"/></g><g transform="translate(266.955)"><path d="M216.825,215.593h-.153a1.546,1.546,0,0,1,0-3.092h.153a1.546,1.546,0,1,1,0,3.092Z" transform="translate(-215.127 -212.501)" fill="#fff"/></g></g><g transform="translate(189.041 155.812)"><rect width="0.618" height="78.94" transform="translate(0)" fill="#fff"/></g></g></svg>