<svg xmlns="http://www.w3.org/2000/svg" width="204.777" height="67.783" viewBox="0 0 204.777 67.783">
  <g id="logo" transform="translate(16.501 -154.034)">
    <g id="logo-2" data-name="logo" transform="translate(82.561 67.034)">
      <g id="Group_6" data-name="Group 6" transform="translate(-99.061 87)">
        <path id="Path_1" data-name="Path 1" d="M99.464,63.492a.5.5,0,0,0-.134.02c-.533.153-.314.614-.315,1a122.046,122.046,0,0,1-2,20.38c-.948,5.515-2.485,10.928-2.8,16.551a34.776,34.776,0,0,0,1.551,12.691,21.7,21.7,0,0,0,25.74,13.33c-8.11-2.228-14.732-9.185-15.794-17.8-.776-6.285.988-11.978,3.747-17.452,2.286-4.534,5.232-8.673,7.9-12.983-1.787-1.3-3.56-2.622-5.263-4.032a120.815,120.815,0,0,1-11.982-11.131c-.2-.219-.336-.57-.645-.57" transform="translate(-94.148 -60.427)" fill="#c8e3e7"/>
        <g id="Group_1" data-name="Group 1" transform="translate(37.683 3.065)">
          <path id="Path_2" data-name="Path 2" d="M163.553,63.492c-.309,0-.442.351-.643.57a120.819,120.819,0,0,1-11.982,11.131c-1.37,1.134-2.785,2.211-4.216,3.266q.315.53.631,1.059c2.881,4.8,6.272,9.287,8.606,14.412a34.792,34.792,0,0,1,3.147,12.392,21.935,21.935,0,0,1-16.782,21.326,21.764,21.764,0,0,0,4.644.505,22.073,22.073,0,0,0,20.3-14.024,34.776,34.776,0,0,0,1.551-12.691c-.319-5.622-1.856-11.036-2.8-16.551a122.122,122.122,0,0,1-2-20.38c0-.381.217-.843-.315-1l-.135-.02" transform="translate(-142.314 -63.492)" fill="#7bcad5" opacity="0.651"/>
        </g>
        <g id="Group_2" data-name="Group 2" transform="translate(23.205)">
          <path id="Path_3" data-name="Path 3" d="M132.723,124.717a20.4,20.4,0,0,1-4.691,1.869l-.077.02a20.818,20.818,0,0,0,5.523.752,20,20,0,0,0,2.342-.136,22.187,22.187,0,0,0,2.466-.427q-.437-.1-.873-.208a20.422,20.422,0,0,1-4.69-1.869m.769-65.143-.074,0c-.423.038-.4.48-.526.794a121,121,0,0,1-7.14,14.714c-.62,1.112-1.274,2.205-1.943,3.287,3.022,2.2,6.082,4.348,8.914,6.788,3.16-2.723,6.6-5.08,9.961-7.555a119.348,119.348,0,0,1-8.612-17.216c-.134-.338-.106-.817-.58-.817" transform="translate(-123.809 -59.574)" fill="#24b1c4" opacity="0.502"/>
        </g>
        <g id="Group_3" data-name="Group 3" transform="translate(11.374 18.8)">
          <path id="Path_4" data-name="Path 4" d="M120.517,83.6c-2.669,4.309-5.616,8.449-7.9,12.982-2.759,5.474-4.523,11.167-3.747,17.452,1.062,8.613,7.685,15.569,15.794,17.8l.077-.02a20.41,20.41,0,0,0,4.69-1.869c-8.267-4.541-13.068-14.491-10.7-23.861,1.552-6.139,5.258-10.808,9.812-14.912q.44-.4.888-.782c-2.832-2.44-5.893-4.587-8.914-6.788" transform="translate(-108.686 -83.604)" fill="#7ac7d0"/>
        </g>
        <g id="Group_4" data-name="Group 4" transform="translate(32.119 18.032)">
          <path id="Path_5" data-name="Path 5" d="M145.164,82.623c-3.357,2.475-6.8,4.833-9.961,7.555q.447.386.888.782c4.555,4.1,8.259,8.773,9.811,14.912,2.371,9.369-2.432,19.32-10.7,23.861a20.416,20.416,0,0,0,4.691,1.869q.437.114.872.209a21.935,21.935,0,0,0,16.782-21.326A34.793,34.793,0,0,0,154.4,98.093c-2.334-5.124-5.725-9.616-8.606-14.412q-.318-.528-.631-1.059" transform="translate(-135.203 -82.623)" fill="#4abacb" opacity="0.827"/>
        </g>
        <path id="Path_6" data-name="Path 6" d="M132.058,92.28q-.447.386-.888.782c-4.553,4.1-8.259,8.772-9.811,14.912-2.369,9.369,2.432,19.32,10.7,23.861,8.267-4.541,13.068-14.491,10.7-23.861-1.552-6.14-5.257-10.808-9.812-14.912q-.44-.4-.888-.782" transform="translate(-99.939 -66.692)" fill="#64c1d0"/>
        <g id="Group_5" data-name="Group 5" transform="translate(40.957 33.864)">
          <path id="Path_7" data-name="Path 7" d="M146.5,129.28c7.205-7.906,7.634-16.864,4.3-26.421,1.587.483,4.138,6.188,4.461,9.712C156.02,120.883,151.656,127.015,146.5,129.28Z" transform="translate(-146.5 -102.859)" fill="#fff" opacity="0.848"/>
        </g>
      </g>
      <g id="Group_7" data-name="Group 7" transform="translate(-19.17 102.286)">
        <path id="Path_8" data-name="Path 8" d="M79.576,180.548H63.55l-3.6,7.841H58.539l12.392-26.774h1.263l12.392,26.774H83.172Zm-.5-1.109-7.5-16.332-7.536,16.332Z" transform="translate(-58.539 -161.614)" fill="#191717"/>
        <path id="Path_9" data-name="Path 9" d="M100.927,161.614h1.3V187.2h15.682v1.185H100.927Z" transform="translate(-67.765 -161.614)" fill="#191717"/>
        <path id="Path_10" data-name="Path 10" d="M146.854,161.614h10.327a15.513,15.513,0,0,1,7.4,1.721,12.453,12.453,0,0,1,5.011,4.762,14.291,14.291,0,0,1,0,13.808,12.443,12.443,0,0,1-5.011,4.762,15.5,15.5,0,0,1-7.4,1.721H146.854ZM157.1,187.2a14.235,14.235,0,0,0,6.828-1.569,11.263,11.263,0,0,0,4.532-4.341,13.12,13.12,0,0,0,0-12.583,11.275,11.275,0,0,0-4.532-4.342A14.244,14.244,0,0,0,157.1,162.8h-8.95v24.4Z" transform="translate(-77.761 -161.614)" fill="#191717"/>
        <path id="Path_11" data-name="Path 11" d="M204.313,180.548H188.287l-3.6,7.841h-1.415l12.393-26.774h1.262l12.392,26.774h-1.415Zm-.5-1.109-7.5-16.332-7.535,16.332Z" transform="translate(-85.688 -161.614)" fill="#191717"/>
      </g>
      <g id="Group_8" data-name="Group 8" transform="translate(-19.405 139.229)">
        <path id="Path_12" data-name="Path 12" d="M62.178,229.271H59.523l-.55,1.249h-.735l2.263-5h.706l2.27,5h-.75Zm-.25-.57-1.078-2.449L59.772,228.7Z" transform="translate(-58.238 -225.468)" fill="#191717"/>
        <path id="Path_13" data-name="Path 13" d="M80.913,229.9v.621H77.287v-5h3.526v.621H78v1.535h2.506v.606H78V229.9Z" transform="translate(-62.384 -225.468)" fill="#191717"/>
        <path id="Path_14" data-name="Path 14" d="M95.045,230.387a2.242,2.242,0,0,1-.825-.453l.264-.557a2.191,2.191,0,0,0,.732.418,2.681,2.681,0,0,0,.917.16,1.649,1.649,0,0,0,.928-.21.649.649,0,0,0,.307-.56.552.552,0,0,0-.167-.418,1.108,1.108,0,0,0-.414-.246c-.164-.057-.4-.122-.7-.193a7.2,7.2,0,0,1-.91-.271,1.511,1.511,0,0,1-.592-.418,1.116,1.116,0,0,1-.246-.76,1.289,1.289,0,0,1,.21-.721,1.447,1.447,0,0,1,.639-.514,2.593,2.593,0,0,1,1.063-.192,3.343,3.343,0,0,1,.871.114,2.323,2.323,0,0,1,.735.328l-.236.571a2.621,2.621,0,0,0-.671-.3,2.508,2.508,0,0,0-.7-.1,1.537,1.537,0,0,0-.91.221.677.677,0,0,0-.3.571.549.549,0,0,0,.171.418,1.2,1.2,0,0,0,.425.25,6.6,6.6,0,0,0,.688.189,6.973,6.973,0,0,1,.907.271,1.524,1.524,0,0,1,.588.414,1.087,1.087,0,0,1,.247.749,1.277,1.277,0,0,1-.214.717,1.437,1.437,0,0,1-.65.514,2.689,2.689,0,0,1-1.07.189A3.416,3.416,0,0,1,95.045,230.387Z" transform="translate(-66.069 -225.452)" fill="#191717"/>
        <path id="Path_15" data-name="Path 15" d="M112.574,226.145h-1.713v-.621h4.132v.621H113.28v4.376h-.706Z" transform="translate(-69.691 -225.468)" fill="#191717"/>
        <path id="Path_16" data-name="Path 16" d="M132.838,225.524v5h-.714v-2.227h-2.869v2.227h-.714v-5h.714v2.149h2.869v-2.149Z" transform="translate(-73.539 -225.468)" fill="#191717"/>
        <path id="Path_17" data-name="Path 17" d="M150.979,229.9v.621h-3.625v-5h3.526v.621h-2.813v1.535h2.505v.606h-2.505V229.9Z" transform="translate(-77.634 -225.468)" fill="#191717"/>
        <path id="Path_18" data-name="Path 18" d="M165.662,226.145h-1.713v-.621h4.132v.621h-1.713v4.376h-.706Z" transform="translate(-81.246 -225.468)" fill="#191717"/>
        <path id="Path_19" data-name="Path 19" d="M181.63,225.524h.713v5h-.713Z" transform="translate(-85.094 -225.468)" fill="#191717"/>
        <path id="Path_20" data-name="Path 20" d="M196.63,230.231a2.435,2.435,0,0,1-.945-.914,2.674,2.674,0,0,1,0-2.619,2.425,2.425,0,0,1,.949-.914,2.778,2.778,0,0,1,1.357-.332,2.836,2.836,0,0,1,1.07.2,2.2,2.2,0,0,1,.828.582l-.464.45a1.86,1.86,0,0,0-1.406-.593,2.034,2.034,0,0,0-1.006.25,1.809,1.809,0,0,0-.7.688,2.027,2.027,0,0,0,0,1.963,1.8,1.8,0,0,0,.7.688,2.025,2.025,0,0,0,1.006.25,1.864,1.864,0,0,0,1.406-.6l.464.45a2.21,2.21,0,0,1-.832.585,2.8,2.8,0,0,1-1.074.2A2.767,2.767,0,0,1,196.63,230.231Z" transform="translate(-88.078 -225.452)" fill="#191717"/>
        <path id="Path_21" data-name="Path 21" d="M214.075,230.387a2.231,2.231,0,0,1-.824-.453l.264-.557a2.187,2.187,0,0,0,.732.418,2.685,2.685,0,0,0,.918.16,1.649,1.649,0,0,0,.928-.21.649.649,0,0,0,.307-.56.555.555,0,0,0-.167-.418,1.111,1.111,0,0,0-.415-.246c-.164-.057-.4-.122-.7-.193a7.164,7.164,0,0,1-.91-.271,1.5,1.5,0,0,1-.592-.418,1.116,1.116,0,0,1-.246-.76,1.283,1.283,0,0,1,.21-.721,1.441,1.441,0,0,1,.638-.514,2.594,2.594,0,0,1,1.064-.192,3.343,3.343,0,0,1,.871.114,2.31,2.31,0,0,1,.735.328l-.235.571a2.606,2.606,0,0,0-.671-.3,2.508,2.508,0,0,0-.7-.1,1.537,1.537,0,0,0-.91.221.676.676,0,0,0-.3.571.549.549,0,0,0,.171.418,1.191,1.191,0,0,0,.425.25,6.545,6.545,0,0,0,.688.189,6.957,6.957,0,0,1,.906.271,1.526,1.526,0,0,1,.589.414,1.09,1.09,0,0,1,.246.749,1.271,1.271,0,0,1-.214.717,1.43,1.43,0,0,1-.649.514,2.689,2.689,0,0,1-1.07.189A3.421,3.421,0,0,1,214.075,230.387Z" transform="translate(-91.976 -225.452)" fill="#191717"/>
      </g>
      <g id="Group_13" data-name="Group 13" transform="translate(40.667 91.746)">
        <rect id="Rectangle_48" data-name="Rectangle 48" width="0.284" height="34" transform="translate(0 7)" fill="#39393b"/>
      </g>
    </g>
  </g>
</svg>
