<svg xmlns="http://www.w3.org/2000/svg" width="155.603" height="167.744" viewBox="0 0 155.603 167.744"><g transform="translate(-76.56 -55.522)"><g transform="translate(76.561 55.522)"><g transform="translate(34.939)"><path d="M100.759,63.492a.62.62,0,0,0-.166.024c-.663.19-.391.764-.392,1.238A151.778,151.778,0,0,1,97.711,90.1c-1.179,6.858-3.09,13.59-3.487,20.582a43.248,43.248,0,0,0,1.928,15.783,26.98,26.98,0,0,0,32.011,16.577c-10.086-2.771-18.32-11.422-19.642-22.133-.965-7.816,1.229-14.9,4.659-21.7,2.843-5.638,6.506-10.786,9.826-16.146-2.222-1.618-4.427-3.26-6.545-5.015a150.248,150.248,0,0,1-14.9-13.843c-.252-.272-.417-.709-.8-.709" transform="translate(-94.148 -59.68)" fill="#c8e3e7"/><g transform="translate(46.862 3.812)"><path d="M168.727,63.492c-.384,0-.55.437-.8.709a150.25,150.25,0,0,1-14.9,13.843c-1.7,1.411-3.464,2.75-5.243,4.061q.391.66.785,1.316c3.582,5.964,7.8,11.55,10.7,17.922a43.268,43.268,0,0,1,3.914,15.411c-.212,12.634-8.508,23.653-20.87,26.521a27.066,27.066,0,0,0,5.775.629,27.451,27.451,0,0,0,25.246-17.441,43.248,43.248,0,0,0,1.928-15.783c-.4-6.992-2.308-13.724-3.488-20.582a151.871,151.871,0,0,1-2.489-25.345c0-.474.27-1.048-.392-1.238l-.167-.024" transform="translate(-142.314 -63.492)" fill="#7bcad5" opacity="0.651"/></g><g transform="translate(28.858)"><path d="M134.895,140.586a25.369,25.369,0,0,1-5.834,2.324l-.1.024a25.89,25.89,0,0,0,6.869.935,24.876,24.876,0,0,0,2.912-.169,27.591,27.591,0,0,0,3.067-.531q-.543-.118-1.086-.259a25.4,25.4,0,0,1-5.833-2.324m.956-81.012-.092,0c-.526.048-.5.6-.654.988a150.476,150.476,0,0,1-8.879,18.3c-.772,1.384-1.584,2.743-2.417,4.088,3.758,2.738,7.564,5.408,11.086,8.442,3.93-3.386,8.213-6.317,12.387-9.4a148.42,148.42,0,0,1-10.71-21.409c-.166-.42-.131-1.016-.721-1.016" transform="translate(-123.809 -59.574)" fill="#24b1c4" opacity="0.502"/></g><g transform="translate(14.144 23.38)"><path d="M123.4,83.6c-3.32,5.359-6.984,10.507-9.826,16.145-3.431,6.808-5.625,13.888-4.659,21.7,1.321,10.711,9.557,19.362,19.642,22.133l.1-.024a25.383,25.383,0,0,0,5.833-2.324c-10.281-5.647-16.252-18.022-13.306-29.674,1.93-7.635,6.539-13.441,12.2-18.545q.547-.492,1.1-.973c-3.522-3.035-7.328-5.7-11.086-8.441" transform="translate(-108.686 -83.604)" fill="#7ac7d0"/></g><g transform="translate(39.944 22.425)"><path d="M147.59,82.623c-4.175,3.078-8.458,6.01-12.387,9.4q.556.48,1.1.973c5.664,5.1,10.271,10.911,12.2,18.545,2.948,11.652-3.025,24.027-13.3,29.674a25.389,25.389,0,0,0,5.834,2.324q.543.142,1.085.26c12.362-2.868,20.658-13.888,20.871-26.521a43.268,43.268,0,0,0-3.914-15.411c-2.9-6.373-7.12-11.958-10.7-17.922q-.4-.657-.785-1.316" transform="translate(-135.203 -82.623)" fill="#4abacb" opacity="0.827"/></g><path d="M134.812,92.28q-.556.48-1.1.973c-5.663,5.1-10.271,10.91-12.2,18.545-2.946,11.652,3.025,24.027,13.306,29.674,10.281-5.647,16.252-18.022,13.306-29.674-1.93-7.636-6.538-13.441-12.2-18.545q-.547-.492-1.1-.973" transform="translate(-94.868 -60.459)" fill="#64c1d0"/><g transform="translate(50.935 42.114)"><path d="M146.5,135.717c8.961-9.831,9.494-20.972,5.344-32.858,1.974.6,5.146,7.695,5.548,12.078C158.339,125.274,152.913,132.9,146.5,135.717Z" transform="translate(-146.5 -102.859)" fill="#fff" opacity="0.848"/></g></g><g transform="translate(0.293 99.278)"><path d="M84.7,185.16H64.771L60.3,194.911h-1.76l15.411-33.3h1.57l15.411,33.3H89.173Zm-.619-1.38L74.76,163.469,65.388,183.78Z" transform="translate(-58.539 -161.614)" fill="#191717"/><path d="M100.927,161.614h1.617v31.823h19.5v1.474h-21.12Z" transform="translate(-59.686 -161.614)" fill="#191717"/><path d="M146.854,161.614H159.7a19.292,19.292,0,0,1,9.2,2.14,15.487,15.487,0,0,1,6.232,5.922,17.772,17.772,0,0,1,0,17.171,15.474,15.474,0,0,1-6.232,5.922,19.281,19.281,0,0,1-9.2,2.14H146.854ZM159.6,193.437a17.7,17.7,0,0,0,8.491-1.951,14.007,14.007,0,0,0,5.636-5.4,16.317,16.317,0,0,0,0-15.649,14.022,14.022,0,0,0-5.636-5.4,17.714,17.714,0,0,0-8.491-1.95h-11.13v30.348Z" transform="translate(-60.929 -161.614)" fill="#191717"/><path d="M209.437,185.16h-19.93l-4.472,9.751h-1.76l15.412-33.3h1.569l15.411,33.3h-1.76Zm-.618-1.38L199.5,163.469l-9.37,20.311Z" transform="translate(-61.914 -161.614)" fill="#191717"/></g><g transform="translate(0 161.389)"><path d="M63.138,230.184h-3.3l-.684,1.554h-.914l2.814-6.214h.879l2.823,6.214h-.932Zm-.31-.709-1.341-3.045-1.341,3.045Z" transform="translate(-58.238 -225.454)" fill="#191717"/><path d="M81.8,230.966v.773h-4.51v-6.214h4.385v.772h-3.5v1.909h3.116v.754H78.174v2.006Z" transform="translate(-58.753 -225.454)" fill="#191717"/><path d="M95.245,231.589a2.788,2.788,0,0,1-1.025-.563l.328-.693a2.725,2.725,0,0,0,.911.52,3.333,3.333,0,0,0,1.14.2,2.051,2.051,0,0,0,1.154-.262.807.807,0,0,0,.381-.7.687.687,0,0,0-.208-.52,1.377,1.377,0,0,0-.515-.306c-.2-.071-.493-.152-.866-.24a8.959,8.959,0,0,1-1.132-.337,1.879,1.879,0,0,1-.737-.52,1.388,1.388,0,0,1-.306-.946,1.6,1.6,0,0,1,.262-.9,1.8,1.8,0,0,1,.795-.639,3.225,3.225,0,0,1,1.322-.239,4.157,4.157,0,0,1,1.083.142,2.889,2.889,0,0,1,.915.408l-.293.71a3.26,3.26,0,0,0-.835-.378,3.119,3.119,0,0,0-.87-.128,1.911,1.911,0,0,0-1.132.275.841.841,0,0,0-.378.71.683.683,0,0,0,.213.52,1.49,1.49,0,0,0,.528.31,8.206,8.206,0,0,0,.856.235,8.675,8.675,0,0,1,1.128.337,1.9,1.9,0,0,1,.732.515,1.351,1.351,0,0,1,.307.932,1.588,1.588,0,0,1-.267.892,1.787,1.787,0,0,1-.809.639,3.344,3.344,0,0,1-1.331.235A4.248,4.248,0,0,1,95.245,231.589Z" transform="translate(-59.212 -225.452)" fill="#191717"/><path d="M112.991,226.3h-2.13v-.772H116v.772h-2.131v5.442h-.879Z" transform="translate(-59.662 -225.454)" fill="#191717"/><path d="M133.885,225.524v6.214H133v-2.77h-3.568v2.77h-.888v-6.214h.888V228.2H133v-2.673Z" transform="translate(-60.14 -225.454)" fill="#191717"/><path d="M151.863,230.966v.773h-4.509v-6.214h4.385v.772h-3.5v1.909h3.115v.754h-3.115v2.006Z" transform="translate(-60.649 -225.454)" fill="#191717"/><path d="M166.079,226.3h-2.13v-.772h5.139v.772h-2.131v5.442h-.879Z" transform="translate(-61.099 -225.454)" fill="#191717"/><path d="M181.63,225.524h.887v6.214h-.887Z" transform="translate(-61.577 -225.454)" fill="#191717"/><path d="M196.943,231.395a3.028,3.028,0,0,1-1.175-1.136,3.326,3.326,0,0,1,0-3.257,3.015,3.015,0,0,1,1.18-1.136,3.455,3.455,0,0,1,1.687-.413,3.527,3.527,0,0,1,1.331.243,2.736,2.736,0,0,1,1.029.724l-.577.559a2.313,2.313,0,0,0-1.748-.737,2.529,2.529,0,0,0-1.251.311,2.249,2.249,0,0,0-.875.856,2.521,2.521,0,0,0,0,2.441,2.243,2.243,0,0,0,.875.856,2.519,2.519,0,0,0,1.251.311,2.318,2.318,0,0,0,1.748-.746l.577.559a2.749,2.749,0,0,1-1.034.728,3.482,3.482,0,0,1-1.336.249A3.441,3.441,0,0,1,196.943,231.395Z" transform="translate(-61.948 -225.452)" fill="#191717"/><path d="M214.275,231.589a2.775,2.775,0,0,1-1.024-.563l.328-.693a2.72,2.72,0,0,0,.91.52,3.339,3.339,0,0,0,1.141.2,2.051,2.051,0,0,0,1.154-.262.807.807,0,0,0,.381-.7.69.69,0,0,0-.208-.52,1.381,1.381,0,0,0-.516-.306c-.2-.071-.492-.152-.865-.24a8.907,8.907,0,0,1-1.132-.337,1.865,1.865,0,0,1-.737-.52,1.388,1.388,0,0,1-.306-.946,1.6,1.6,0,0,1,.262-.9,1.792,1.792,0,0,1,.794-.639,3.227,3.227,0,0,1,1.323-.239,4.157,4.157,0,0,1,1.083.142,2.873,2.873,0,0,1,.914.408l-.293.71a3.241,3.241,0,0,0-.834-.378,3.119,3.119,0,0,0-.87-.128,1.911,1.911,0,0,0-1.132.275.841.841,0,0,0-.378.71.683.683,0,0,0,.213.52,1.481,1.481,0,0,0,.528.31,8.137,8.137,0,0,0,.856.235,8.656,8.656,0,0,1,1.127.337,1.9,1.9,0,0,1,.733.515,1.356,1.356,0,0,1,.306.932,1.58,1.58,0,0,1-.267.892,1.779,1.779,0,0,1-.807.639,3.344,3.344,0,0,1-1.331.235A4.255,4.255,0,0,1,214.275,231.589Z" transform="translate(-62.433 -225.452)" fill="#191717"/></g><g transform="translate(0.177 148.788)"><path d="M59.39,214.267H59.3a.883.883,0,0,1,0-1.766h.088a.883.883,0,1,1,0,1.766Z" transform="translate(-58.42 -212.501)" fill="#80ccce"/><g transform="translate(7.175)"><path d="M204.881,214.267H204.7a.883.883,0,0,1,0-1.766h.177a.883.883,0,1,1,0,1.766Zm-7.264,0h-.177a.883.883,0,0,1,0-1.766h.177a.883.883,0,0,1,0,1.766Zm-7.265,0h-.177a.883.883,0,0,1,0-1.766h.177a.883.883,0,0,1,0,1.766Zm-7.264,0h-.178a.883.883,0,0,1,0-1.766h.178a.883.883,0,0,1,0,1.766Zm-7.265,0h-.177a.883.883,0,0,1,0-1.766h.177a.883.883,0,0,1,0,1.766Zm-7.265,0h-.177a.883.883,0,0,1,0-1.766h.177a.883.883,0,1,1,0,1.766Zm-7.264,0h-.177a.883.883,0,1,1,0-1.766h.177a.883.883,0,0,1,0,1.766Zm-7.265,0h-.177a.883.883,0,0,1,0-1.766h.177a.883.883,0,1,1,0,1.766Zm-7.264,0h-.178a.883.883,0,0,1,0-1.766h.178a.883.883,0,0,1,0,1.766Zm-7.265,0h-.177a.883.883,0,0,1,0-1.766h.177a.883.883,0,0,1,0,1.766Zm-7.264,0h-.178a.883.883,0,0,1,0-1.766h.178a.883.883,0,0,1,0,1.766Zm-7.265,0h-.177a.883.883,0,0,1,0-1.766h.177a.883.883,0,0,1,0,1.766Zm-7.265,0h-.177a.883.883,0,0,1,0-1.766h.177a.883.883,0,1,1,0,1.766Zm-7.264,0h-.177a.883.883,0,1,1,0-1.766h.177a.883.883,0,0,1,0,1.766Zm-7.265,0H103a.883.883,0,0,1,0-1.766h.177a.883.883,0,0,1,0,1.766Zm-7.264,0h-.178a.883.883,0,0,1,0-1.766h.178a.883.883,0,0,1,0,1.766Zm-7.265,0h-.177a.883.883,0,0,1,0-1.766h.177a.883.883,0,0,1,0,1.766Zm-7.264,0h-.178a.883.883,0,0,1,0-1.766h.178a.883.883,0,0,1,0,1.766Zm-7.265,0h-.177a.883.883,0,1,1,0-1.766h.177a.883.883,0,0,1,0,1.766Zm-7.265,0h-.177a.883.883,0,0,1,0-1.766h.177a.883.883,0,0,1,0,1.766Z" transform="translate(-65.795 -212.501)" fill="#80ccce"/></g><g transform="translate(152.466)"><path d="M216.1,214.267h-.088a.883.883,0,0,1,0-1.766h.088a.883.883,0,1,1,0,1.766Z" transform="translate(-215.127 -212.501)" fill="#80ccce"/></g></g><g transform="translate(74.706 93.633)"><rect width="0.353" height="45.085" fill="#39393b"/></g></g></g></svg>