<svg xmlns="http://www.w3.org/2000/svg" xmlns:xlink="http://www.w3.org/1999/xlink" width="76" height="53" viewBox="0 0 76 53"><defs><filter id="a" x="0" y="0" width="76" height="53" filterUnits="userSpaceOnUse"><feOffset input="SourceAlpha"/><feGaussianBlur stdDeviation="2" result="b"/><feFlood flood-opacity="0.161"/><feComposite operator="in" in2="b"/><feComposite in="SourceGraphic"/></filter></defs><g transform="translate(-1235 -539)"><g transform="matrix(1, 0, 0, 1, 1235, 539)" filter="url(#a)"><rect width="64" height="41" transform="translate(6 6)" fill="#64c1d0" opacity="0.798"/></g><path d="M.979,16.947a.907.907,0,0,0,.6-.221L10.94,9.195a.975.975,0,0,0,0-1.5L1.619.206a.935.935,0,0,0-.707-.2A.949.949,0,0,0,.261.36a.913.913,0,0,0-.21.707A.911.911,0,0,0,.4,1.707L8.8,8.444.36,15.224a.911.911,0,0,0-.353.641.935.935,0,0,0,.2.707A.962.962,0,0,0,.979,16.947Zm0,0" transform="translate(1264.049 570.83) rotate(-90)" fill="#fff"/></g></svg>